<svg width="32" height="32" viewBox="0 0 32 32" fill="none" xmlns="http://www.w3.org/2000/svg">
<g filter="url(#filter0_d_673_3084)">
<path fill-rule="evenodd" clip-rule="evenodd" d="M11.8402 1.10656H12.0775L12.2169 2.93425e-07H8.86186L8.72248 1.10656H9.28542L9.0989 1.93535C9.0989 1.93535 9.71154 1.78141 10.2683 1.67007C10.7289 1.57794 11.7157 1.67007 11.7157 1.67007L11.8402 1.10656Z" fill="#F1F1F1"/>
<path d="M14.7307 2.71079C15.1426 3.00133 15.6602 3.60625 15.6602 3.60625L16.3077 2.86501L14.1699 1.37783L13.5224 2.11906C13.5224 2.11906 14.3013 2.40795 14.7307 2.71079Z" fill="#F1F1F1"/>
<path fill-rule="evenodd" clip-rule="evenodd" d="M14.7771 3.01994C13.931 2.29688 12.6771 1.93535 11.0155 1.93535C7.27698 1.93535 5.13848 3.45839 4.60001 6.50447L4.11539 9.2044C4.03846 9.63515 4 10.0275 4 10.3813C4 11.3966 4.3077 12.1582 4.92309 12.6658C5.75388 13.3427 7.06159 13.6812 8.84624 13.6812C10.6309 13.6812 12.054 13.3427 13.1156 12.6658C14.1925 11.9889 14.8771 10.8351 15.1694 9.2044L15.6541 6.50447C15.731 6.10448 15.7694 5.73526 15.7694 5.3968C15.7694 4.38144 15.4387 3.58916 14.7771 3.01994ZM13.7987 3.97761C13.1218 3.39916 12.1187 3.10994 10.7894 3.10994C7.79858 3.10994 6.08778 4.32837 5.657 6.76523L5.2693 8.92517C5.20776 9.26978 5.17699 9.58362 5.17699 9.86668C5.17699 10.679 5.42315 11.2882 5.91547 11.6943C6.58009 12.2359 7.62627 12.5066 9.05398 12.5066C10.4817 12.5066 11.6202 12.2359 12.4694 11.6943C13.331 11.1528 13.8787 10.2298 14.1125 8.92517L14.5002 6.76523C14.5618 6.44524 14.5925 6.14986 14.5925 5.8791C14.5925 5.06681 14.3279 4.43298 13.7987 3.97761Z" fill="#F1F1F1"/>
<path d="M13.3142 4.32112C12.5425 3.65958 12.0177 3.56281 10.5024 3.56281L9.88374 7.50918L13.9231 7.84581C13.9932 7.47985 14.2191 6.80541 14.2191 6.49575C14.2191 5.56678 13.9175 4.84191 13.3142 4.32112Z" fill="#F1F1F1"/>
<path fill-rule="evenodd" clip-rule="evenodd" d="M25.8462 0L4 24H6.15385L28 0H25.8462Z" fill="#F1F1F1"/>
<path d="M20.5796 20.3033L14 23.9989L14.4284 21.5234L18.1979 19.4014L15.148 17.2442L15.5764 14.7686L20.8881 18.4819L20.5796 20.3033Z" fill="#F1F1F1"/>
<path d="M27.549 23.9963H19.0846L19.4615 21.7683H27.926L27.549 23.9963Z" fill="#F1F1F1"/>
</g>
<defs>
<filter id="filter0_d_673_3084" x="0" y="0" width="32" height="32" filterUnits="userSpaceOnUse" color-interpolation-filters="sRGB">
<feFlood flood-opacity="0" result="BackgroundImageFix"/>
<feColorMatrix in="SourceAlpha" type="matrix" values="0 0 0 0 0 0 0 0 0 0 0 0 0 0 0 0 0 0 127 0" result="hardAlpha"/>
<feOffset dy="4"/>
<feGaussianBlur stdDeviation="2"/>
<feComposite in2="hardAlpha" operator="out"/>
<feColorMatrix type="matrix" values="0 0 0 0 0 0 0 0 0 0 0 0 0 0 0 0 0 0 0.25 0"/>
<feBlend mode="normal" in2="BackgroundImageFix" result="effect1_dropShadow_673_3084"/>
<feBlend mode="normal" in="SourceGraphic" in2="effect1_dropShadow_673_3084" result="shape"/>
</filter>
</defs>
</svg>
