<svg width="352" height="352" viewBox="0 0 352 352" fill="none" xmlns="http://www.w3.org/2000/svg">
<rect width="352" height="352" fill="black"/>
<g filter="url(#filter0_d_846_372)">
<path fill-rule="evenodd" clip-rule="evenodd" d="M121.596 34.3392H124.671L126.477 20H83.0016L81.1954 34.3392H88.4902L86.0733 45.079C86.0733 45.079 94.012 43.0841 101.226 41.6413C107.195 40.4475 119.983 41.6413 119.983 41.6413L121.596 34.3392Z" fill="#F1F1F1"/>
<path d="M159.051 55.1273C164.389 58.8922 171.097 66.731 171.097 66.731L179.487 57.1258L151.785 37.8543L143.394 47.4595C143.394 47.4595 153.488 51.203 159.051 55.1273Z" fill="#F1F1F1"/>
<path fill-rule="evenodd" clip-rule="evenodd" d="M159.654 59.1334C148.689 49.7638 132.441 45.079 110.909 45.079C62.4642 45.079 34.7528 64.815 27.7751 104.287L21.4952 139.274C20.4984 144.856 20 149.939 20 154.524C20 167.682 23.9873 177.55 31.9618 184.128C42.7273 192.9 59.6732 197.286 82.7992 197.286C105.925 197.286 124.366 192.9 138.122 184.128C152.078 175.357 160.949 160.405 164.737 139.274L171.017 104.287C172.014 99.1038 172.512 94.3193 172.512 89.9336C172.512 76.7762 168.226 66.5095 159.654 59.1334ZM146.975 71.5432C138.203 64.0475 125.204 60.2996 107.979 60.2996C69.2232 60.2996 47.0541 76.0885 41.4719 107.666L36.448 135.655C35.6506 140.121 35.2518 144.188 35.2518 147.856C35.2518 158.382 38.4416 166.276 44.8212 171.539C53.4337 178.556 66.9904 182.065 85.4912 182.065C103.992 182.065 118.745 178.556 129.75 171.539C140.914 164.522 148.011 152.561 151.042 135.655L156.066 107.666C156.863 103.52 157.262 99.6919 157.262 96.1833C157.262 85.6574 153.833 77.4441 146.975 71.5432Z" fill="#F1F1F1"/>
<path d="M140.696 75.9945C130.697 67.4221 123.896 66.1681 104.261 66.1681L96.2435 117.306L148.587 121.669C149.496 116.926 152.423 108.187 152.423 104.174C152.423 92.1362 148.514 82.743 140.696 75.9945Z" fill="#F1F1F1"/>
<path fill-rule="evenodd" clip-rule="evenodd" d="M303.09 20L20 331H47.9103L331 20H303.09Z" fill="#F1F1F1"/>
<path d="M234.844 283.096L149.583 330.986L155.134 298.907L203.982 271.41L164.46 243.455L170.01 211.376L238.841 259.495L234.844 283.096Z" fill="#F1F1F1"/>
<path d="M325.156 330.952H215.471L220.356 302.08H330.041L325.156 330.952Z" fill="#F1F1F1"/>
</g>
<defs>
<filter id="filter0_d_846_372" x="16" y="20" width="319" height="319" filterUnits="userSpaceOnUse" color-interpolation-filters="sRGB">
<feFlood flood-opacity="0" result="BackgroundImageFix"/>
<feColorMatrix in="SourceAlpha" type="matrix" values="0 0 0 0 0 0 0 0 0 0 0 0 0 0 0 0 0 0 127 0" result="hardAlpha"/>
<feOffset dy="4"/>
<feGaussianBlur stdDeviation="2"/>
<feComposite in2="hardAlpha" operator="out"/>
<feColorMatrix type="matrix" values="0 0 0 0 0 0 0 0 0 0 0 0 0 0 0 0 0 0 0.25 0"/>
<feBlend mode="normal" in2="BackgroundImageFix" result="effect1_dropShadow_846_372"/>
<feBlend mode="normal" in="SourceGraphic" in2="effect1_dropShadow_846_372" result="shape"/>
</filter>
</defs>
</svg>
